<mxfile host="app.diagrams.net" agent="Mozilla/5.0 (Windows NT 10.0; Win64; x64) AppleWebKit/537.36 (KHTML, like Gecko) Chrome/130.0.0.0 Safari/537.36 Edg/130.0.0.0" version="24.8.4">
  <diagram id="C5RBs43oDa-KdzZeNtuy" name="Page-1">
    <mxGraphModel dx="605" dy="350" grid="1" gridSize="10" guides="1" tooltips="1" connect="1" arrows="1" fold="1" page="1" pageScale="1" pageWidth="827" pageHeight="1169" math="0" shadow="0">
      <root>
        <mxCell id="WIyWlLk6GJQsqaUBKTNV-0" />
        <mxCell id="WIyWlLk6GJQsqaUBKTNV-1" parent="WIyWlLk6GJQsqaUBKTNV-0" />
        <mxCell id="yLoTYEVH0sTe2W0TpJp4-2" value="&lt;font face=&quot;Times New Roman&quot;&gt;GameUI&lt;/font&gt;" style="swimlane;whiteSpace=wrap;html=1;hachureGap=4;fontFamily=Architects Daughter;fontSource=https%3A%2F%2Ffonts.googleapis.com%2Fcss%3Ffamily%3DArchitects%2BDaughter;rounded=1;labelBackgroundColor=none;fillColor=#fad7ac;strokeColor=#b46504;" vertex="1" parent="WIyWlLk6GJQsqaUBKTNV-1">
          <mxGeometry x="306.5" y="860" width="192" height="250" as="geometry">
            <mxRectangle x="310" y="60" width="90" height="30" as="alternateBounds" />
          </mxGeometry>
        </mxCell>
        <mxCell id="yLoTYEVH0sTe2W0TpJp4-4" value="&lt;font style=&quot;font-size: 10px;&quot; face=&quot;Times New Roman&quot;&gt;- root: Tk&lt;/font&gt;" style="text;html=1;align=left;verticalAlign=middle;whiteSpace=wrap;rounded=1;fontFamily=Architects Daughter;fontSource=https%3A%2F%2Ffonts.googleapis.com%2Fcss%3Ffamily%3DArchitects%2BDaughter;fontSize=10;labelBackgroundColor=none;fontColor=#143642;" vertex="1" parent="yLoTYEVH0sTe2W0TpJp4-2">
          <mxGeometry x="5" y="23" width="185" height="15" as="geometry" />
        </mxCell>
        <mxCell id="yLoTYEVH0sTe2W0TpJp4-6" value="&lt;font style=&quot;font-size: 10px;&quot; face=&quot;Times New Roman&quot;&gt;- game : TicTacToe&lt;/font&gt;" style="text;html=1;align=left;verticalAlign=middle;whiteSpace=wrap;rounded=1;fontFamily=Architects Daughter;fontSource=https%3A%2F%2Ffonts.googleapis.com%2Fcss%3Ffamily%3DArchitects%2BDaughter;fontSize=10;labelBackgroundColor=none;fontColor=#143642;" vertex="1" parent="yLoTYEVH0sTe2W0TpJp4-2">
          <mxGeometry x="5" y="38" width="185" height="15" as="geometry" />
        </mxCell>
        <mxCell id="yLoTYEVH0sTe2W0TpJp4-7" value="&lt;font style=&quot;font-size: 10px;&quot; face=&quot;Times New Roman&quot;&gt;- frame1 : Frame&lt;/font&gt;" style="text;html=1;align=left;verticalAlign=middle;whiteSpace=wrap;rounded=1;fontFamily=Architects Daughter;fontSource=https%3A%2F%2Ffonts.googleapis.com%2Fcss%3Ffamily%3DArchitects%2BDaughter;fontSize=10;labelBackgroundColor=none;fontColor=#143642;" vertex="1" parent="yLoTYEVH0sTe2W0TpJp4-2">
          <mxGeometry x="5" y="53" width="185" height="15" as="geometry" />
        </mxCell>
        <mxCell id="yLoTYEVH0sTe2W0TpJp4-8" value="&lt;font style=&quot;font-size: 10px;&quot;&gt;- frame2 : Frame&lt;/font&gt;" style="text;html=1;align=left;verticalAlign=middle;whiteSpace=wrap;rounded=1;fontFamily=Times New Roman;fontSize=10;labelBackgroundColor=none;fontColor=#143642;" vertex="1" parent="yLoTYEVH0sTe2W0TpJp4-2">
          <mxGeometry x="5" y="68" width="185" height="15" as="geometry" />
        </mxCell>
        <mxCell id="yLoTYEVH0sTe2W0TpJp4-9" value="&lt;font style=&quot;font-size: 10px;&quot; face=&quot;Times New Roman&quot;&gt;- optionFrame : Frame&lt;/font&gt;" style="text;html=1;align=left;verticalAlign=middle;whiteSpace=wrap;rounded=1;fontFamily=Architects Daughter;fontSource=https%3A%2F%2Ffonts.googleapis.com%2Fcss%3Ffamily%3DArchitects%2BDaughter;fontSize=10;labelBackgroundColor=none;fontColor=#143642;" vertex="1" parent="yLoTYEVH0sTe2W0TpJp4-2">
          <mxGeometry x="5" y="83" width="185" height="15" as="geometry" />
        </mxCell>
        <mxCell id="yLoTYEVH0sTe2W0TpJp4-3" value="" style="endArrow=none;html=1;rounded=1;hachureGap=4;fontFamily=Architects Daughter;fontSource=https%3A%2F%2Ffonts.googleapis.com%2Fcss%3Ffamily%3DArchitects%2BDaughter;exitX=0;exitY=0.5;exitDx=0;exitDy=0;labelBackgroundColor=none;strokeColor=#b46504;fontColor=default;fillColor=#fad7ac;" edge="1" parent="yLoTYEVH0sTe2W0TpJp4-2">
          <mxGeometry width="50" height="50" relative="1" as="geometry">
            <mxPoint y="130" as="sourcePoint" />
            <mxPoint x="192" y="130" as="targetPoint" />
          </mxGeometry>
        </mxCell>
        <mxCell id="yLoTYEVH0sTe2W0TpJp4-10" value="&lt;font style=&quot;font-size: 10px;&quot; face=&quot;Times New Roman&quot;&gt;- buttons : list&lt;/font&gt;" style="text;html=1;align=left;verticalAlign=middle;whiteSpace=wrap;rounded=1;fontFamily=Architects Daughter;fontSource=https%3A%2F%2Ffonts.googleapis.com%2Fcss%3Ffamily%3DArchitects%2BDaughter;fontSize=10;labelBackgroundColor=none;fontColor=#143642;" vertex="1" parent="yLoTYEVH0sTe2W0TpJp4-2">
          <mxGeometry x="5" y="98" width="185" height="15" as="geometry" />
        </mxCell>
        <mxCell id="yLoTYEVH0sTe2W0TpJp4-11" value="&lt;font style=&quot;font-size: 10px;&quot; face=&quot;Times New Roman&quot;&gt;- result_label : Label&lt;/font&gt;" style="text;html=1;align=left;verticalAlign=middle;whiteSpace=wrap;rounded=1;fontFamily=Architects Daughter;fontSource=https%3A%2F%2Ffonts.googleapis.com%2Fcss%3Ffamily%3DArchitects%2BDaughter;fontSize=10;labelBackgroundColor=none;fontColor=#143642;" vertex="1" parent="yLoTYEVH0sTe2W0TpJp4-2">
          <mxGeometry x="5" y="113" width="185" height="15" as="geometry" />
        </mxCell>
        <mxCell id="yLoTYEVH0sTe2W0TpJp4-13" value="&lt;font style=&quot;font-size: 10px;&quot; face=&quot;Times New Roman&quot;&gt;+ __init__(root)&lt;/font&gt;" style="text;html=1;align=left;verticalAlign=middle;whiteSpace=wrap;rounded=1;fontFamily=Architects Daughter;fontSource=https%3A%2F%2Ffonts.googleapis.com%2Fcss%3Ffamily%3DArchitects%2BDaughter;fontSize=10;labelBackgroundColor=none;fontColor=#143642;" vertex="1" parent="yLoTYEVH0sTe2W0TpJp4-2">
          <mxGeometry x="5" y="130" width="185" height="15" as="geometry" />
        </mxCell>
        <mxCell id="yLoTYEVH0sTe2W0TpJp4-14" value="&lt;font style=&quot;font-size: 10px;&quot; face=&quot;Times New Roman&quot;&gt;+ create_board()&lt;/font&gt;" style="text;html=1;align=left;verticalAlign=middle;whiteSpace=wrap;rounded=1;fontFamily=Architects Daughter;fontSource=https%3A%2F%2Ffonts.googleapis.com%2Fcss%3Ffamily%3DArchitects%2BDaughter;fontSize=10;labelBackgroundColor=none;fontColor=#143642;" vertex="1" parent="yLoTYEVH0sTe2W0TpJp4-2">
          <mxGeometry x="5" y="145" width="200" height="15" as="geometry" />
        </mxCell>
        <mxCell id="yLoTYEVH0sTe2W0TpJp4-15" value="&lt;font face=&quot;Times New Roman&quot;&gt;+ play(event)&lt;/font&gt;" style="text;html=1;align=left;verticalAlign=middle;whiteSpace=wrap;rounded=1;fontFamily=Architects Daughter;fontSource=https%3A%2F%2Ffonts.googleapis.com%2Fcss%3Ffamily%3DArchitects%2BDaughter;fontSize=10;labelBackgroundColor=none;fontColor=#143642;" vertex="1" parent="yLoTYEVH0sTe2W0TpJp4-2">
          <mxGeometry x="5" y="160" width="200" height="15" as="geometry" />
        </mxCell>
        <mxCell id="yLoTYEVH0sTe2W0TpJp4-16" value="&lt;font style=&quot;font-size: 10px;&quot;&gt;+ change_mode_single()&lt;/font&gt;" style="text;html=1;align=left;verticalAlign=middle;whiteSpace=wrap;rounded=1;fontFamily=Times New Roman;fontSize=10;labelBackgroundColor=none;fontColor=#143642;" vertex="1" parent="yLoTYEVH0sTe2W0TpJp4-2">
          <mxGeometry x="5" y="175" width="200" height="15" as="geometry" />
        </mxCell>
        <mxCell id="yLoTYEVH0sTe2W0TpJp4-17" value="&lt;font style=&quot;font-size: 10px;&quot; face=&quot;Times New Roman&quot;&gt;+ change_mode_multi()&lt;/font&gt;" style="text;html=1;align=left;verticalAlign=middle;whiteSpace=wrap;rounded=1;fontFamily=Architects Daughter;fontSource=https%3A%2F%2Ffonts.googleapis.com%2Fcss%3Ffamily%3DArchitects%2BDaughter;fontSize=10;labelBackgroundColor=none;fontColor=#143642;" vertex="1" parent="yLoTYEVH0sTe2W0TpJp4-2">
          <mxGeometry x="5" y="190" width="200" height="15" as="geometry" />
        </mxCell>
        <mxCell id="yLoTYEVH0sTe2W0TpJp4-18" value="&lt;font face=&quot;Times New Roman&quot;&gt;+ display_result(message)&lt;/font&gt;" style="text;html=1;align=left;verticalAlign=middle;whiteSpace=wrap;rounded=1;fontFamily=Architects Daughter;fontSource=https%3A%2F%2Ffonts.googleapis.com%2Fcss%3Ffamily%3DArchitects%2BDaughter;fontSize=10;labelBackgroundColor=none;fontColor=#143642;" vertex="1" parent="yLoTYEVH0sTe2W0TpJp4-2">
          <mxGeometry x="5" y="205" width="200" height="15" as="geometry" />
        </mxCell>
        <mxCell id="yLoTYEVH0sTe2W0TpJp4-19" value="&lt;font style=&quot;font-size: 10px;&quot; face=&quot;Times New Roman&quot;&gt;+ reset_game()&lt;/font&gt;" style="text;html=1;align=left;verticalAlign=middle;whiteSpace=wrap;rounded=1;fontFamily=Architects Daughter;fontSource=https%3A%2F%2Ffonts.googleapis.com%2Fcss%3Ffamily%3DArchitects%2BDaughter;fontSize=10;labelBackgroundColor=none;fontColor=#143642;" vertex="1" parent="yLoTYEVH0sTe2W0TpJp4-2">
          <mxGeometry x="5" y="220" width="200" height="15" as="geometry" />
        </mxCell>
        <mxCell id="yLoTYEVH0sTe2W0TpJp4-20" value="&lt;font style=&quot;font-size: 10px;&quot; face=&quot;Times New Roman&quot;&gt;+ update_button(button_id, player)&lt;/font&gt;" style="text;html=1;align=left;verticalAlign=middle;whiteSpace=wrap;rounded=1;fontFamily=Architects Daughter;fontSource=https%3A%2F%2Ffonts.googleapis.com%2Fcss%3Ffamily%3DArchitects%2BDaughter;fontSize=10;labelBackgroundColor=none;fontColor=#143642;" vertex="1" parent="yLoTYEVH0sTe2W0TpJp4-2">
          <mxGeometry x="5" y="235" width="200" height="15" as="geometry" />
        </mxCell>
        <mxCell id="yLoTYEVH0sTe2W0TpJp4-21" value="&lt;font style=&quot;font-weight: normal;&quot; face=&quot;Times New Roman&quot;&gt;&amp;lt;&amp;lt;abstract&amp;gt;&amp;gt;&lt;/font&gt;&lt;div&gt;&lt;font face=&quot;Times New Roman&quot;&gt;&lt;i&gt;TicTacToe&lt;/i&gt;&lt;/font&gt;&lt;/div&gt;" style="swimlane;whiteSpace=wrap;html=1;hachureGap=4;fontFamily=Architects Daughter;fontSource=https%3A%2F%2Ffonts.googleapis.com%2Fcss%3Ffamily%3DArchitects%2BDaughter;startSize=30;rounded=1;labelBackgroundColor=none;fillColor=#b0e3e6;strokeColor=#0e8088;" vertex="1" parent="WIyWlLk6GJQsqaUBKTNV-1">
          <mxGeometry x="308" y="390" width="190.5" height="210" as="geometry">
            <mxRectangle x="304" y="390" width="100" height="40" as="alternateBounds" />
          </mxGeometry>
        </mxCell>
        <mxCell id="yLoTYEVH0sTe2W0TpJp4-22" value="&lt;font style=&quot;font-size: 10px;&quot; face=&quot;Times New Roman&quot;&gt;- _board: dict&lt;/font&gt;" style="text;html=1;align=left;verticalAlign=middle;whiteSpace=wrap;rounded=1;fontFamily=Architects Daughter;fontSource=https%3A%2F%2Ffonts.googleapis.com%2Fcss%3Ffamily%3DArchitects%2BDaughter;fontSize=10;labelBackgroundColor=none;fontColor=#143642;" vertex="1" parent="yLoTYEVH0sTe2W0TpJp4-21">
          <mxGeometry x="6" y="30" width="185" height="15" as="geometry" />
        </mxCell>
        <mxCell id="yLoTYEVH0sTe2W0TpJp4-23" value="&lt;font style=&quot;font-size: 10px;&quot; face=&quot;Times New Roman&quot;&gt;- _turn: str&lt;/font&gt;" style="text;html=1;align=left;verticalAlign=middle;whiteSpace=wrap;rounded=1;fontFamily=Architects Daughter;fontSource=https%3A%2F%2Ffonts.googleapis.com%2Fcss%3Ffamily%3DArchitects%2BDaughter;fontSize=10;labelBackgroundColor=none;fontColor=#143642;" vertex="1" parent="yLoTYEVH0sTe2W0TpJp4-21">
          <mxGeometry x="6" y="45" width="185" height="15" as="geometry" />
        </mxCell>
        <mxCell id="yLoTYEVH0sTe2W0TpJp4-24" value="&lt;font style=&quot;font-size: 10px;&quot; face=&quot;Times New Roman&quot;&gt;- _game_over: bool&lt;/font&gt;" style="text;html=1;align=left;verticalAlign=middle;whiteSpace=wrap;rounded=1;fontFamily=Architects Daughter;fontSource=https%3A%2F%2Ffonts.googleapis.com%2Fcss%3Ffamily%3DArchitects%2BDaughter;fontSize=10;labelBackgroundColor=none;fontColor=#143642;" vertex="1" parent="yLoTYEVH0sTe2W0TpJp4-21">
          <mxGeometry x="6" y="60" width="185" height="15" as="geometry" />
        </mxCell>
        <mxCell id="yLoTYEVH0sTe2W0TpJp4-25" value="&lt;font style=&quot;font-size: 10px;&quot;&gt;+ board:dict&lt;/font&gt;" style="text;html=1;align=left;verticalAlign=middle;whiteSpace=wrap;rounded=1;fontFamily=Times New Roman;fontSize=10;labelBackgroundColor=none;fontColor=#143642;" vertex="1" parent="yLoTYEVH0sTe2W0TpJp4-21">
          <mxGeometry x="6" y="75" width="185" height="15" as="geometry" />
        </mxCell>
        <mxCell id="yLoTYEVH0sTe2W0TpJp4-26" value="&lt;font style=&quot;font-size: 10px;&quot; face=&quot;Times New Roman&quot;&gt;+ turn: str&lt;/font&gt;" style="text;html=1;align=left;verticalAlign=middle;whiteSpace=wrap;rounded=1;fontFamily=Architects Daughter;fontSource=https%3A%2F%2Ffonts.googleapis.com%2Fcss%3Ffamily%3DArchitects%2BDaughter;fontSize=10;labelBackgroundColor=none;fontColor=#143642;" vertex="1" parent="yLoTYEVH0sTe2W0TpJp4-21">
          <mxGeometry x="6" y="90" width="185" height="15" as="geometry" />
        </mxCell>
        <mxCell id="yLoTYEVH0sTe2W0TpJp4-27" value="&lt;font style=&quot;font-size: 10px;&quot; face=&quot;Times New Roman&quot;&gt;+ game_over: bool&lt;/font&gt;" style="text;html=1;align=left;verticalAlign=middle;whiteSpace=wrap;rounded=1;fontFamily=Architects Daughter;fontSource=https%3A%2F%2Ffonts.googleapis.com%2Fcss%3Ffamily%3DArchitects%2BDaughter;fontSize=10;labelBackgroundColor=none;fontColor=#143642;" vertex="1" parent="yLoTYEVH0sTe2W0TpJp4-21">
          <mxGeometry x="6" y="105" width="185" height="15" as="geometry" />
        </mxCell>
        <mxCell id="yLoTYEVH0sTe2W0TpJp4-28" value="" style="endArrow=none;html=1;rounded=1;hachureGap=4;fontFamily=Architects Daughter;fontSource=https%3A%2F%2Ffonts.googleapis.com%2Fcss%3Ffamily%3DArchitects%2BDaughter;labelBackgroundColor=none;strokeColor=#0e8088;fontColor=default;fillColor=#b0e3e6;" edge="1" parent="yLoTYEVH0sTe2W0TpJp4-21">
          <mxGeometry width="50" height="50" relative="1" as="geometry">
            <mxPoint x="-0.5" y="126" as="sourcePoint" />
            <mxPoint x="190.5" y="126" as="targetPoint" />
          </mxGeometry>
        </mxCell>
        <mxCell id="yLoTYEVH0sTe2W0TpJp4-29" value="&lt;font style=&quot;font-size: 10px;&quot; face=&quot;Times New Roman&quot;&gt;+ __init__()&lt;/font&gt;" style="text;html=1;align=left;verticalAlign=middle;whiteSpace=wrap;rounded=1;fontFamily=Architects Daughter;fontSource=https%3A%2F%2Ffonts.googleapis.com%2Fcss%3Ffamily%3DArchitects%2BDaughter;fontSize=10;labelBackgroundColor=none;fontColor=#143642;" vertex="1" parent="yLoTYEVH0sTe2W0TpJp4-21">
          <mxGeometry x="6" y="130" width="185" height="15" as="geometry" />
        </mxCell>
        <mxCell id="yLoTYEVH0sTe2W0TpJp4-30" value="&lt;font style=&quot;font-size: 10px;&quot; face=&quot;Times New Roman&quot;&gt;+ reset_game()&lt;/font&gt;" style="text;html=1;align=left;verticalAlign=middle;whiteSpace=wrap;rounded=1;fontFamily=Architects Daughter;fontSource=https%3A%2F%2Ffonts.googleapis.com%2Fcss%3Ffamily%3DArchitects%2BDaughter;fontSize=10;labelBackgroundColor=none;fontColor=#143642;" vertex="1" parent="yLoTYEVH0sTe2W0TpJp4-21">
          <mxGeometry x="6" y="145" width="200" height="15" as="geometry" />
        </mxCell>
        <mxCell id="yLoTYEVH0sTe2W0TpJp4-31" value="&lt;font face=&quot;Times New Roman&quot;&gt;+ toggle_turn()&lt;/font&gt;" style="text;html=1;align=left;verticalAlign=middle;whiteSpace=wrap;rounded=1;fontFamily=Architects Daughter;fontSource=https%3A%2F%2Ffonts.googleapis.com%2Fcss%3Ffamily%3DArchitects%2BDaughter;fontSize=10;labelBackgroundColor=none;fontColor=#143642;" vertex="1" parent="yLoTYEVH0sTe2W0TpJp4-21">
          <mxGeometry x="6" y="160" width="200" height="15" as="geometry" />
        </mxCell>
        <mxCell id="yLoTYEVH0sTe2W0TpJp4-32" value="&lt;font style=&quot;font-size: 10px;&quot;&gt;+ check_winner()&lt;/font&gt;" style="text;html=1;align=left;verticalAlign=middle;whiteSpace=wrap;rounded=1;fontFamily=Times New Roman;fontSize=10;labelBackgroundColor=none;fontColor=#143642;" vertex="1" parent="yLoTYEVH0sTe2W0TpJp4-21">
          <mxGeometry x="6" y="175" width="200" height="15" as="geometry" />
        </mxCell>
        <mxCell id="yLoTYEVH0sTe2W0TpJp4-33" value="&lt;font style=&quot;font-size: 10px;&quot; face=&quot;Times New Roman&quot;&gt;+ make_move(&lt;i&gt;button_id&lt;/i&gt;)&lt;/font&gt;" style="text;html=1;align=left;verticalAlign=middle;whiteSpace=wrap;rounded=1;fontFamily=Architects Daughter;fontSource=https%3A%2F%2Ffonts.googleapis.com%2Fcss%3Ffamily%3DArchitects%2BDaughter;fontSize=10;labelBackgroundColor=none;fontColor=#143642;" vertex="1" parent="yLoTYEVH0sTe2W0TpJp4-21">
          <mxGeometry x="6" y="190" width="200" height="15" as="geometry" />
        </mxCell>
        <mxCell id="yLoTYEVH0sTe2W0TpJp4-34" value="&lt;font face=&quot;Times New Roman&quot;&gt;SinglePlayer&lt;/font&gt;" style="swimlane;whiteSpace=wrap;html=1;hachureGap=4;fontFamily=Architects Daughter;fontSource=https%3A%2F%2Ffonts.googleapis.com%2Fcss%3Ffamily%3DArchitects%2BDaughter;rounded=1;labelBackgroundColor=none;fillColor=#d5e8d4;strokeColor=#82b366;" vertex="1" parent="WIyWlLk6GJQsqaUBKTNV-1">
          <mxGeometry x="160" y="690" width="200" height="80" as="geometry" />
        </mxCell>
        <mxCell id="yLoTYEVH0sTe2W0TpJp4-37" value="" style="endArrow=none;html=1;rounded=1;hachureGap=4;fontFamily=Architects Daughter;fontSource=https%3A%2F%2Ffonts.googleapis.com%2Fcss%3Ffamily%3DArchitects%2BDaughter;labelBackgroundColor=none;strokeColor=#82b366;fontColor=default;fillColor=#d5e8d4;" edge="1" parent="yLoTYEVH0sTe2W0TpJp4-34">
          <mxGeometry width="50" height="50" relative="1" as="geometry">
            <mxPoint y="40" as="sourcePoint" />
            <mxPoint x="200" y="40" as="targetPoint" />
          </mxGeometry>
        </mxCell>
        <mxCell id="yLoTYEVH0sTe2W0TpJp4-39" value="&lt;font style=&quot;font-size: 10px;&quot;&gt;+ computer_move()&lt;/font&gt;" style="text;html=1;align=left;verticalAlign=middle;whiteSpace=wrap;rounded=1;fontFamily=Times New Roman;fontSize=10;labelBackgroundColor=none;fontColor=#143642;" vertex="1" parent="yLoTYEVH0sTe2W0TpJp4-34">
          <mxGeometry x="7" y="46" width="183" height="15" as="geometry" />
        </mxCell>
        <mxCell id="yLoTYEVH0sTe2W0TpJp4-40" value="&lt;font style=&quot;font-size: 10px;&quot; face=&quot;Times New Roman&quot;&gt;+ make_move(&lt;i&gt;button_id&lt;/i&gt;)&lt;/font&gt;" style="text;html=1;align=left;verticalAlign=middle;whiteSpace=wrap;rounded=1;fontFamily=Architects Daughter;fontSource=https%3A%2F%2Ffonts.googleapis.com%2Fcss%3Ffamily%3DArchitects%2BDaughter;fontSize=10;labelBackgroundColor=none;fontColor=#143642;" vertex="1" parent="yLoTYEVH0sTe2W0TpJp4-34">
          <mxGeometry x="7" y="60" width="183" height="16" as="geometry" />
        </mxCell>
        <mxCell id="yLoTYEVH0sTe2W0TpJp4-35" value="&lt;font face=&quot;Times New Roman&quot;&gt;MultiPlayer&lt;/font&gt;" style="swimlane;whiteSpace=wrap;html=1;hachureGap=4;fontFamily=Architects Daughter;fontSource=https%3A%2F%2Ffonts.googleapis.com%2Fcss%3Ffamily%3DArchitects%2BDaughter;rounded=1;labelBackgroundColor=none;fillColor=#d5e8d4;strokeColor=#82b366;" vertex="1" parent="WIyWlLk6GJQsqaUBKTNV-1">
          <mxGeometry x="440" y="695" width="200" height="70" as="geometry" />
        </mxCell>
        <mxCell id="yLoTYEVH0sTe2W0TpJp4-38" value="" style="endArrow=none;html=1;rounded=1;hachureGap=4;fontFamily=Architects Daughter;fontSource=https%3A%2F%2Ffonts.googleapis.com%2Fcss%3Ffamily%3DArchitects%2BDaughter;labelBackgroundColor=none;strokeColor=#82b366;fontColor=default;fillColor=#d5e8d4;" edge="1" parent="yLoTYEVH0sTe2W0TpJp4-35">
          <mxGeometry width="50" height="50" relative="1" as="geometry">
            <mxPoint y="40" as="sourcePoint" />
            <mxPoint x="200" y="40" as="targetPoint" />
          </mxGeometry>
        </mxCell>
        <mxCell id="yLoTYEVH0sTe2W0TpJp4-41" value="&lt;font style=&quot;font-size: 10px;&quot; face=&quot;Times New Roman&quot;&gt;+ make_move(&lt;i&gt;button_id&lt;/i&gt;)&lt;/font&gt;" style="text;html=1;align=left;verticalAlign=middle;whiteSpace=wrap;rounded=1;fontFamily=Architects Daughter;fontSource=https%3A%2F%2Ffonts.googleapis.com%2Fcss%3Ffamily%3DArchitects%2BDaughter;fontSize=10;labelBackgroundColor=none;fontColor=#143642;" vertex="1" parent="yLoTYEVH0sTe2W0TpJp4-35">
          <mxGeometry x="6" y="47" width="183" height="16" as="geometry" />
        </mxCell>
        <mxCell id="yLoTYEVH0sTe2W0TpJp4-43" value="" style="endArrow=block;endFill=1;html=1;edgeStyle=orthogonalEdgeStyle;align=left;verticalAlign=top;rounded=0;hachureGap=4;strokeColor=#82b366;fontFamily=Architects Daughter;fontSource=https%3A%2F%2Ffonts.googleapis.com%2Fcss%3Ffamily%3DArchitects%2BDaughter;fontColor=#143642;fillColor=#d5e8d4;" edge="1" parent="WIyWlLk6GJQsqaUBKTNV-1">
          <mxGeometry x="-1" relative="1" as="geometry">
            <mxPoint x="260" y="690" as="sourcePoint" />
            <mxPoint x="400" y="600" as="targetPoint" />
            <Array as="points">
              <mxPoint x="260" y="660" />
              <mxPoint x="400" y="660" />
            </Array>
          </mxGeometry>
        </mxCell>
        <mxCell id="yLoTYEVH0sTe2W0TpJp4-45" value="" style="endArrow=block;endFill=1;html=1;edgeStyle=orthogonalEdgeStyle;align=left;verticalAlign=top;rounded=0;hachureGap=4;strokeColor=#82b366;fontFamily=Architects Daughter;fontSource=https%3A%2F%2Ffonts.googleapis.com%2Fcss%3Ffamily%3DArchitects%2BDaughter;fontColor=#143642;fillColor=#d5e8d4;exitX=0.5;exitY=0;exitDx=0;exitDy=0;" edge="1" parent="WIyWlLk6GJQsqaUBKTNV-1">
          <mxGeometry x="-1" relative="1" as="geometry">
            <mxPoint x="540" y="695" as="sourcePoint" />
            <mxPoint x="400" y="600" as="targetPoint" />
            <Array as="points">
              <mxPoint x="540" y="660" />
              <mxPoint x="400" y="660" />
            </Array>
          </mxGeometry>
        </mxCell>
      </root>
    </mxGraphModel>
  </diagram>
</mxfile>
